<svg width="1000" height="1000" viewBox="0 0 1000 1000" fill="none" xmlns="http://www.w3.org/2000/svg">
<rect width="1000" height="1000" rx="500" fill="#232323"/>
<path d="M706.933 617.89C696.967 574.556 697.4 537.723 659.267 537.723L550.5 643.456C555.122 649.132 555.873 656.476 566.967 671.611C578.06 686.747 603.944 691.792 615.5 692.423H739C729.756 679.81 713.629 647.001 706.933 617.89Z" fill="#D9D9D9"/>
<path d="M706.933 617.89C696.967 574.556 697.4 537.723 659.267 537.723L550.5 643.456C555.122 649.132 555.873 656.476 566.967 671.611C578.06 686.747 603.944 691.792 615.5 692.423H739C729.756 679.81 713.629 647.001 706.933 617.89Z" fill="url(#paint0_linear_34_105)"/>
<path d="M582.272 571.177C610.051 543.397 635.516 526.035 648.248 522.562C614.681 521.405 541.991 522.562 519.768 522.562C478.098 522.562 468.838 538.767 457.264 546.869C420.224 574.649 358.364 635.064 387.815 671.877C415.594 706.602 459.401 690.39 464.208 685.767C494.303 656.83 558.618 594.83 582.272 571.177Z" fill="#D9D9D9"/>
<path d="M582.272 571.177C610.051 543.397 635.516 526.035 648.248 522.562C614.681 521.405 541.991 522.562 519.768 522.562C478.098 522.562 468.838 538.767 457.264 546.869C420.224 574.649 358.364 635.064 387.815 671.877C415.594 706.602 459.401 690.39 464.208 685.767C494.303 656.83 558.618 594.83 582.272 571.177Z" fill="url(#paint1_linear_34_105)"/>
<path d="M537.13 463.528C498.239 463.528 479.256 433.434 474.626 418.387C476.941 390.607 493.498 332.911 537.13 314.213C585.744 293.38 606.579 324.632 616.996 341.995L665.61 463.528H537.13Z" fill="#D9D9D9"/>
<path d="M537.13 463.528C498.239 463.528 479.256 433.434 474.626 418.387C476.941 390.607 493.498 332.911 537.13 314.213C585.744 293.38 606.579 324.632 616.996 341.995L665.61 463.528H537.13Z" fill="url(#paint2_linear_34_105)"/>
<path d="M502.406 373.247C519.073 328.8 552.177 308.429 564.91 307.271C527.394 306.114 440.706 307.271 410.149 307.271C379.591 307.271 362.692 335.05 358.062 348.94C330.282 417.231 269.167 566.315 246.944 616.318C224.72 666.322 251.574 688.082 267.778 692.712H423.47C419.997 691.555 408.065 685.767 399.731 671.877C391.397 657.988 393.944 642.94 396.259 637.153C424.038 567.704 485.738 417.695 502.406 373.247Z" fill="#D9D9D9"/>
<path d="M502.406 373.247C519.073 328.8 552.177 308.429 564.91 307.271C527.394 306.114 440.706 307.271 410.149 307.271C379.591 307.271 362.692 335.05 358.062 348.94C330.282 417.231 269.167 566.315 246.944 616.318C224.72 666.322 251.574 688.082 267.778 692.712H423.47C419.997 691.555 408.065 685.767 399.731 671.877C391.397 657.988 393.944 642.94 396.259 637.153C424.038 567.704 485.738 417.695 502.406 373.247Z" fill="url(#paint3_linear_34_105)"/>
<defs>
<linearGradient id="paint0_linear_34_105" x1="534.467" y1="538.156" x2="668.013" y2="692.537" gradientUnits="userSpaceOnUse">
<stop stop-color="#195FAB"/>
<stop offset="0.368388" stop-color="#1380D4"/>
<stop offset="1" stop-color="#258BD3"/>
</linearGradient>
<linearGradient id="paint1_linear_34_105" x1="559.819" y1="522.048" x2="563.974" y2="691.516" gradientUnits="userSpaceOnUse">
<stop stop-color="#1C84EE"/>
<stop offset="0.368388" stop-color="#03A4F9"/>
<stop offset="0.817698" stop-color="#1DB3F9"/>
<stop offset="1" stop-color="#9CE8F5"/>
</linearGradient>
<linearGradient id="paint2_linear_34_105" x1="526.713" y1="306.756" x2="643.642" y2="390.45" gradientUnits="userSpaceOnUse">
<stop stop-color="#195FAB"/>
<stop offset="0.368388" stop-color="#1380D4"/>
<stop offset="1" stop-color="#258BD3"/>
</linearGradient>
<linearGradient id="paint3_linear_34_105" x1="457.264" y1="306.756" x2="474.517" y2="687.493" gradientUnits="userSpaceOnUse">
<stop stop-color="#9CE8F5"/>
<stop offset="0.182302" stop-color="#1DB3F9"/>
<stop offset="0.631612" stop-color="#03A4F9"/>
<stop offset="1" stop-color="#1C84EE"/>
</linearGradient>
</defs>
</svg>
