<svg width="1000" height="1000" viewBox="0 0 1000 1000" fill="none" xmlns="http://www.w3.org/2000/svg">
<rect width="1000" height="1000" rx="500" fill="white"/>
<path d="M740.5 636C729 586 729.5 543.5 685.5 543.5L560 665.5C565.333 672.049 566.2 680.522 579 697.986C591.8 715.451 621.667 721.272 635 722H777.5C766.833 707.446 748.226 669.59 740.5 636Z" fill="#D9D9D9"/>
<path d="M740.5 636C729 586 729.5 543.5 685.5 543.5L560 665.5C565.333 672.049 566.2 680.522 579 697.986C591.8 715.451 621.667 721.272 635 722H777.5C766.833 707.446 748.226 669.59 740.5 636Z" fill="url(#paint0_linear_1_11)"/>
<path d="M596.66 582.1C628.713 550.047 658.095 530.014 672.787 526.007C634.055 524.671 550.182 526.007 524.54 526.007C476.46 526.007 465.775 544.705 452.42 554.053C409.682 586.107 338.305 655.817 372.286 698.293C404.34 738.36 454.886 719.654 460.433 714.32C495.158 680.931 569.367 609.393 596.66 582.1Z" fill="#D9D9D9"/>
<path d="M596.66 582.1C628.713 550.047 658.095 530.014 672.787 526.007C634.055 524.671 550.182 526.007 524.54 526.007C476.46 526.007 465.775 544.705 452.42 554.053C409.682 586.107 338.305 655.817 372.286 698.293C404.34 738.36 454.886 719.654 460.433 714.32C495.158 680.931 569.367 609.393 596.66 582.1Z" fill="url(#paint1_linear_1_11)"/>
<path d="M544.573 457.891C499.698 457.891 477.795 423.166 472.453 405.804C475.124 373.751 494.228 307.179 544.573 285.604C600.666 261.566 624.706 297.626 636.726 317.659L692.82 457.891H544.573Z" fill="#D9D9D9"/>
<path d="M544.573 457.891C499.698 457.891 477.795 423.166 472.453 405.804C475.124 373.751 494.228 307.179 544.573 285.604C600.666 261.566 624.706 297.626 636.726 317.659L692.82 457.891H544.573Z" fill="url(#paint2_linear_1_11)"/>
<path d="M504.507 353.72C523.739 302.435 561.936 278.929 576.627 277.594C533.339 276.258 433.315 277.593 398.056 277.593C362.797 277.593 343.298 309.647 337.956 325.673C305.903 404.471 235.385 576.491 209.743 634.187C184.1 691.883 215.085 716.991 233.783 722.333H413.427C409.42 720.998 395.652 714.32 386.036 698.293C376.42 682.267 379.358 664.905 382.029 658.227C414.083 578.094 485.275 405.006 504.507 353.72Z" fill="#D9D9D9"/>
<path d="M504.507 353.72C523.739 302.435 561.936 278.929 576.627 277.594C533.339 276.258 433.315 277.593 398.056 277.593C362.797 277.593 343.298 309.647 337.956 325.673C305.903 404.471 235.385 576.491 209.743 634.187C184.1 691.883 215.085 716.991 233.783 722.333H413.427C409.42 720.998 395.652 714.32 386.036 698.293C376.42 682.267 379.358 664.905 382.029 658.227C414.083 578.094 485.275 405.006 504.507 353.72Z" fill="url(#paint3_linear_1_11)"/>
<defs>
<linearGradient id="paint0_linear_1_11" x1="541.5" y1="544" x2="695.592" y2="722.132" gradientUnits="userSpaceOnUse">
<stop stop-color="#195FAB"/>
<stop offset="0.368388" stop-color="#1380D4"/>
<stop offset="1" stop-color="#258BD3"/>
</linearGradient>
<linearGradient id="paint1_linear_1_11" x1="570.753" y1="525.413" x2="575.547" y2="720.953" gradientUnits="userSpaceOnUse">
<stop stop-color="#1C84EE"/>
<stop offset="0.368388" stop-color="#03A4F9"/>
<stop offset="0.817698" stop-color="#1DB3F9"/>
<stop offset="1" stop-color="#9CE8F5"/>
</linearGradient>
<linearGradient id="paint2_linear_1_11" x1="532.553" y1="277" x2="667.472" y2="373.569" gradientUnits="userSpaceOnUse">
<stop stop-color="#195FAB"/>
<stop offset="0.368388" stop-color="#1380D4"/>
<stop offset="1" stop-color="#258BD3"/>
</linearGradient>
<linearGradient id="paint3_linear_1_11" x1="452.42" y1="277" x2="472.328" y2="716.311" gradientUnits="userSpaceOnUse">
<stop stop-color="#9CE8F5"/>
<stop offset="0.182302" stop-color="#1DB3F9"/>
<stop offset="0.631612" stop-color="#03A4F9"/>
<stop offset="1" stop-color="#1C84EE"/>
</linearGradient>
</defs>
</svg>
